<svg xmlns="http://www.w3.org/2000/svg" xmlns:xlink="http://www.w3.org/1999/xlink" xmlns:svgjs="http://svgjs.com/svgjs" id="SvgjsSvg1078" width="288" height="288"><defs id="SvgjsDefs1079"></defs><g id="SvgjsG1080"><svg xmlns="http://www.w3.org/2000/svg" viewBox="0 0 48 48" width="288" height="288"><path fill="#4188bf" d="M32.78 33.15v5.78h4.57 4.57V27.06h2.59c1.1 0 1.99-.89 1.99-1.99v-7.39c0-2.95-2.39-5.34-5.34-5.34h-3.81-3.81c-2.27 0-4.21 1.42-4.98 3.42l-.33 1.27M15.22 33.19v5.74h-4.57H6.07V27.06H3.48c-1.1 0-1.99-.89-1.99-1.99v-7.39c0-2.95 2.39-5.34 5.34-5.34h3.81 3.81c2.28 0 4.22 1.42 4.99 3.43l.33 1.26" class="color94c1ff svgShape"></path><path fill="#74b9ef" d="M24,17.03h-4.22c-3.27,0-5.92,2.65-5.92,5.92v8.2c0,1.22,0.99,2.2,2.2,2.2h2.87V46.5H24h5.07V33.34h2.87c1.22,0,2.2-0.99,2.2-2.2v-8.2c0-3.27-2.65-5.92-5.92-5.92H24z" class="colord9edfc svgShape"></path><circle cx="24" cy="8.66" r="4.84" fill="#74b9ef" class="colord9edfc svgShape"></circle><circle cx="37.35" cy="6" r="4.5" fill="#4188bf" class="color94c1ff svgShape"></circle><circle cx="10.65" cy="6" r="4.5" fill="#4188bf" class="color94c1ff svgShape"></circle><path fill="#2a608a" d="M29.07,47.25H18.93c-0.41,0-0.75-0.34-0.75-0.75V34.09h-2.12c-1.63,0-2.95-1.32-2.95-2.95v-8.2c0-3.68,2.99-6.67,6.67-6.67h8.45c3.67,0,6.67,2.99,6.67,6.67v8.2c0,1.63-1.32,2.95-2.95,2.95h-2.12V46.5C29.82,46.91,29.48,47.25,29.07,47.25z M19.68,45.75h8.64V33.34c0-0.41,0.34-0.75,0.75-0.75h2.87c0.8,0,1.45-0.65,1.45-1.45v-8.2c0-2.85-2.32-5.17-5.17-5.17h-8.45c-2.85,0-5.17,2.32-5.17,5.17v8.2c0,0.8,0.65,1.45,1.45,1.45h2.87c0.41,0,0.75,0.34,0.75,0.75V45.75z" class="color116fff svgShape"></path><rect width="1.5" height="10.94" x="28.32" y="22.4" fill="#2a608a" class="color116fff svgShape"></rect><rect width="1.5" height="10.89" x="23.25" y="35.61" fill="#2a608a" class="color116fff svgShape"></rect><path fill="#2a608a" d="M24,14.25c-3.08,0-5.59-2.51-5.59-5.59S20.92,3.08,24,3.08c3.08,0,5.59,2.51,5.59,5.59S27.08,14.25,24,14.25z M24,4.58c-2.25,0-4.09,1.83-4.09,4.09s1.83,4.09,4.09,4.09c2.25,0,4.09-1.83,4.09-4.09S26.25,4.58,24,4.58z" class="color116fff svgShape"></path><rect width="1.5" height="10.92" x="18.18" y="22.42" fill="#2a608a" class="color116fff svgShape"></rect><path fill="#2a608a" d="M41.93,39.68h-9.15c-0.41,0-0.75-0.34-0.75-0.75v-5.78h1.5v5.03h7.65V27.06c0-0.41,0.34-0.75,0.75-0.75h2.59c0.68,0,1.24-0.55,1.24-1.24v-7.39c0-2.53-2.06-4.59-4.59-4.59h-7.62c-1.88,0-3.6,1.18-4.28,2.94l-0.31,1.19l-1.45-0.38l0.33-1.27c0.92-2.41,3.21-3.98,5.71-3.98h7.62c3.36,0,6.09,2.73,6.09,6.09v7.39c0,1.51-1.23,2.74-2.74,2.74h-1.84v11.12C42.68,39.34,42.34,39.68,41.93,39.68z" class="color116fff svgShape"></path><rect width="1.5" height="9.72" x="41.18" y="17.34" fill="#2a608a" class="color116fff svgShape"></rect><rect width="1.5" height="10.34" x="36.6" y="28.59" fill="#2a608a" class="color116fff svgShape"></rect><path fill="#2a608a" d="M37.35 11.25c-2.89 0-5.25-2.35-5.25-5.25s2.36-5.25 5.25-5.25S42.6 3.1 42.6 6 40.25 11.25 37.35 11.25zM37.35 2.25c-2.07 0-3.75 1.68-3.75 3.75s1.68 3.75 3.75 3.75S41.1 8.07 41.1 6 39.42 2.25 37.35 2.25zM15.22 39.68H6.07c-.41 0-.75-.34-.75-.75V27.81H3.48c-1.51 0-2.73-1.23-2.73-2.74v-7.39c0-3.36 2.73-6.09 6.09-6.09h7.62c2.51 0 4.79 1.57 5.69 3.91l.36 1.33-1.45.38-.33-1.26c-.65-1.69-2.37-2.87-4.26-2.87H6.84c-2.53 0-4.59 2.06-4.59 4.59v7.39c0 .68.55 1.24 1.23 1.24h2.59c.41 0 .75.34.75.75v11.12h7.65v-4.99h1.5v5.74C15.97 39.34 15.63 39.68 15.22 39.68z" class="color116fff svgShape"></path><rect width="1.5" height="10.34" x="9.9" y="28.59" fill="#2a608a" class="color116fff svgShape"></rect><path fill="#2a608a" d="M10.65,11.25C7.75,11.25,5.4,8.9,5.4,6s2.36-5.25,5.25-5.25S15.9,3.1,15.9,6S13.54,11.25,10.65,11.25z M10.65,2.25C8.58,2.25,6.9,3.93,6.9,6s1.68,3.75,3.75,3.75S14.4,8.07,14.4,6S12.71,2.25,10.65,2.25z" class="color116fff svgShape"></path><rect width="1.5" height="9.72" x="5.32" y="17.34" fill="#2a608a" class="color116fff svgShape"></rect></svg></g></svg>